<svg width="206" height="36" viewBox="0 0 206 36" fill="none" xmlns="http://www.w3.org/2000/svg">
<path d="M170.851 7.73318H170.829V27.372H170.851V27.3938H186.558V23.4617H174.761V19.5296H182.647V15.5974H174.761V11.6653H186.558V7.73318H170.851Z" fill="#121419"/>
<path fill-rule="evenodd" clip-rule="evenodd" d="M143.96 17.1266V18.0004C143.96 23.1777 139.765 27.372 134.566 27.372C129.389 27.372 125.195 23.1777 125.195 18.0004V17.1266C125.195 11.9275 129.389 7.73318 134.566 7.73318C139.765 7.73318 143.96 11.9275 143.96 17.1266ZM140.028 17.1266C140.028 14.112 137.581 11.6653 134.566 11.6653C131.552 11.6653 129.105 14.112 129.105 17.1266V18.0004C129.105 21.015 131.552 23.4617 134.566 23.4617C137.581 23.4617 140.028 21.015 140.028 18.0004V17.1266Z" fill="#121419"/>
<path d="M206 7.73318H190.271V11.6653H196.17V27.372H200.102V11.6653H206V7.73318Z" fill="#121419"/>
<path fill-rule="evenodd" clip-rule="evenodd" d="M122.77 14.6144C122.77 18.4155 119.69 21.4956 115.889 21.4956H110.755V27.372H106.823V7.73318H115.889C119.69 7.73318 122.77 10.8133 122.77 14.6144ZM118.838 14.6144C118.838 12.976 117.505 11.6653 115.889 11.6653H110.755V17.5635H115.889C117.505 17.5635 118.838 16.231 118.838 14.6144Z" fill="#121419"/>
<path fill-rule="evenodd" clip-rule="evenodd" d="M103.524 21.4957C103.524 24.7506 100.903 27.3939 97.6479 27.3939H86.5287H86.5069V7.73319H96.6212C99.8761 7.73319 102.519 10.3765 102.519 13.6314C102.519 14.8766 102.126 16.0344 101.449 16.9955C102.716 18.0878 103.524 19.6825 103.524 21.4957ZM90.439 11.6653V15.5975H96.6649C97.7353 15.5756 98.5873 14.7018 98.5873 13.6314C98.5873 12.5391 97.6916 11.6653 96.6212 11.6653H90.439ZM99.5922 21.4957C99.5922 20.4034 98.6965 19.5296 97.6261 19.5296H91.3347H90.439V23.4617H97.6261C98.6965 23.4617 99.5922 22.5879 99.5922 21.4957Z" fill="#121419"/>
<path d="M7.86426 11.8182H27.5249V7.88611H7.86426V11.8182Z" fill="#2F2FA1"/>
<path d="M19.6607 15.7504H7.86426V19.6825H19.6607V15.7504Z" fill="#2F2FA1"/>
<path d="M7.86426 27.5468H27.5249V23.6146H7.86426V27.5468Z" fill="#2F2FA1"/>
<path d="M66.8462 7.73319V27.372V27.3939H82.5748V23.4617H70.7784V19.5296H78.6426V15.5975H70.7784V11.6653H82.5748V7.73319H66.8462Z" fill="#2F2FA1"/>
<path d="M162.965 7.71135L157.067 15.5975L151.169 7.71135H147.236V27.372H151.169V14.0246L157.067 21.4957L162.965 14.0246V27.372H166.897V7.71135H162.965Z" fill="#2F2FA1"/>
<path fill-rule="evenodd" clip-rule="evenodd" d="M58.982 0V35.3892H0V0H58.982ZM55.0498 31.4571V3.93213H3.93213V31.4571H55.0498Z" fill="#2F2FA1"/>
<path d="M47.1856 7.88611V27.5468H51.1177V7.88611H47.1856Z" fill="#2F2FA1"/>
<path d="M39.3213 27.5468H43.2535V15.7285H39.3213V27.5468Z" fill="#2F2FA1"/>
<path d="M31.4571 27.5249H35.3892V7.88611H31.4571V27.5249Z" fill="#2F2FA1"/>
</svg>
