<svg width="20" height="20" viewBox="0 0 20 20" fill="none" xmlns="http://www.w3.org/2000/svg">
<path d="M19.6713 18.0877L14.9812 13.3961C16.2618 11.7124 16.8551 9.605 16.6412 7.50032C16.4273 5.39563 15.4222 3.45078 13.8292 2.05923C12.2361 0.667687 10.1741 -0.0666606 8.06036 0.00476101C5.94658 0.0761827 3.93883 0.948041 2.44332 2.44395C0.947796 3.93985 0.076163 5.94811 0.00475978 8.06244C-0.0666435 10.1768 0.667514 12.2393 2.0587 13.8327C3.44989 15.4262 5.39424 16.4316 7.49838 16.6455C9.60252 16.8594 11.7094 16.266 13.3926 14.9851L18.0827 19.6767C18.2952 19.884 18.5802 20 18.877 20C19.1738 20 19.4588 19.884 19.6713 19.6767C19.8818 19.4659 20 19.1801 20 18.8822C20 18.5842 19.8818 18.2985 19.6713 18.0877ZM2.30743 8.37199C2.30743 7.17212 2.66314 5.99919 3.32958 5.00153C3.99602 4.00388 4.94326 3.2263 6.05152 2.76712C7.15977 2.30795 8.37926 2.18781 9.55577 2.4219C10.7323 2.65598 11.813 3.23377 12.6612 4.08221C13.5094 4.93065 14.0871 6.01163 14.3211 7.18845C14.5551 8.36526 14.435 9.58507 13.976 10.6936C13.5169 11.8021 12.7395 12.7496 11.7421 13.4162C10.7447 14.0829 9.57209 14.4387 8.37253 14.4387C6.76455 14.4368 5.22297 13.797 4.08596 12.6597C2.94894 11.5224 2.30933 9.98039 2.30743 8.37199Z" fill="#2F2FA1"/>
</svg>
