<svg width="156" height="43" viewBox="0 0 156 43" fill="none" xmlns="http://www.w3.org/2000/svg">
<path d="M147.881 32.2C148.229 32.6169 148.785 32.8254 149.549 32.8254C150.313 32.8254 150.869 32.6169 151.217 32.2C151.578 31.7691 151.759 31.0464 151.759 30.0317C151.759 28.9615 151.578 28.211 151.217 27.7801C150.869 27.3353 150.313 27.1129 149.549 27.1129C148.771 27.1129 148.208 27.3284 147.86 27.7592C147.527 28.1901 147.36 28.9476 147.36 30.0317C147.36 31.0464 147.534 31.7691 147.881 32.2ZM149.549 24.4443C151.537 24.4443 152.982 24.8613 153.886 25.6952C154.803 26.5153 155.262 27.9608 155.262 30.0317C155.262 32.0471 154.803 33.4648 153.886 34.2848C152.982 35.091 151.537 35.494 149.549 35.494C147.575 35.494 146.13 35.091 145.213 34.2848C144.309 33.4648 143.857 32.0471 143.857 30.0317C143.857 27.9608 144.309 26.5153 145.213 25.6952C146.13 24.8613 147.575 24.4443 149.549 24.4443Z" fill="#484848"/>
<path d="M132.399 35.1821V24.7578H138.737C140.043 24.7578 140.995 25.001 141.593 25.4875C142.191 25.9601 142.489 26.5855 142.489 27.3639C142.489 28.7399 141.656 29.5043 139.988 29.6572V30.0742C140.905 30.1437 141.593 30.3661 142.052 30.7413C142.524 31.1027 142.761 31.6587 142.761 32.4092C142.761 33.2848 142.462 33.9659 141.864 34.4524C141.28 34.9388 140.391 35.1821 139.195 35.1821H132.399ZM137.944 30.7205H135.901V32.8887H137.778C138.765 32.8887 139.258 32.5273 139.258 31.8046C139.258 31.0819 138.82 30.7205 137.944 30.7205ZM137.59 27.0303H135.901V29.1151H137.965C138.341 29.1151 138.619 29.0179 138.799 28.8233C138.98 28.6148 139.07 28.3577 139.07 28.0519C139.07 27.7183 138.966 27.4681 138.758 27.3013C138.563 27.1206 138.174 27.0303 137.59 27.0303Z" fill="#484848"/>
<path d="M121.227 24.7578H131.401V27.4264H128.065V35.1821H124.563V27.4264H121.227V24.7578Z" fill="#484848"/>
<path d="M117.202 30.8865H120.704C120.607 32.5822 120.12 33.7775 119.245 34.4725C118.369 35.1535 117.042 35.494 115.263 35.494C113.289 35.494 111.85 35.091 110.947 34.2848C110.044 33.4648 109.592 32.0471 109.592 30.0317C109.592 27.9608 110.044 26.5153 110.947 25.6952C111.85 24.8613 113.289 24.4443 115.263 24.4443C117.028 24.4443 118.348 24.7849 119.224 25.4659C120.099 26.1331 120.586 27.2867 120.683 28.9268H117.181C117.07 27.7176 116.43 27.1129 115.263 27.1129C114.498 27.1129 113.942 27.3284 113.595 27.7592C113.261 28.1901 113.094 28.9476 113.094 30.0317C113.094 31.0464 113.261 31.7691 113.595 32.2C113.942 32.6169 114.498 32.8254 115.263 32.8254C116.458 32.8254 117.104 32.1791 117.202 30.8865Z" fill="#484848"/>
<path d="M98.6479 24.7578H108.822V27.4264H105.486V35.1821H101.984V27.4264H98.6479V24.7578Z" fill="#484848"/>
<path d="M90.4786 24.7578V28.5105H94.148V24.7578H97.6505V35.1821H94.148V31.1791H90.4786V35.1821H86.9761V24.7578H90.4786Z" fill="#484848"/>
<path d="M85.5629 29.1769V30.4279H77.9532V30.4695C77.9671 31.3174 78.1478 31.922 78.4953 32.2834C78.8567 32.6447 79.3987 32.8254 80.1215 32.8254C81.3168 32.8254 81.9631 32.3598 82.0604 31.4286H85.5629C85.4656 32.9158 84.9792 33.9651 84.1035 34.5767C83.2279 35.1883 81.9005 35.494 80.1215 35.494C78.1478 35.494 76.7093 35.091 75.8058 34.2848C74.9024 33.4648 74.4507 32.0471 74.4507 30.0317C74.4507 27.9608 74.8955 26.5153 75.785 25.6952C76.6884 24.8613 78.127 24.4443 80.1006 24.4443C81.9353 24.4443 83.3043 24.8127 84.2078 25.5493C85.1112 26.286 85.5629 27.4952 85.5629 29.1769ZM77.9532 29.1769V29.3437H82.0395C82.0395 28.5376 81.8727 27.9677 81.5392 27.6342C81.2195 27.2867 80.733 27.1129 80.0798 27.1129C79.4126 27.1129 78.8984 27.2728 78.537 27.5925C78.1756 27.8982 77.981 28.4264 77.9532 29.1769Z" fill="#484848"/>
<path d="M65.1096 35.1821V24.7578H73.6157V27.4264H68.6121V35.1821H65.1096Z" fill="#484848"/>
<path d="M56.2076 35.494C55.1096 35.494 54.2478 35.2091 53.6224 34.6392C52.9969 34.0555 52.6842 33.2424 52.6842 32.2C52.6842 30.1012 54.0046 29.0519 56.6454 29.0519C57.3404 29.0519 58.4801 29.1005 60.0646 29.1978V28.4055C60.0646 27.9469 59.9186 27.6203 59.6267 27.4257C59.3488 27.2172 58.8971 27.1129 58.2716 27.1129C57.6878 27.1129 57.25 27.2033 56.9581 27.384C56.6802 27.5647 56.5134 27.8913 56.4578 28.3639H52.9761C53.0595 26.9184 53.5251 25.9037 54.3729 25.32C55.2347 24.7362 56.562 24.4443 58.355 24.4443C60.0646 24.4443 61.3572 24.7571 62.2328 25.3825C63.1223 26.008 63.5671 27.0018 63.5671 28.3639V35.1813H60.0646V33.2007H59.7101C59.4878 33.9512 59.0708 34.5211 58.4592 34.9103C57.8616 35.2994 57.111 35.494 56.2076 35.494ZM57.938 33.0131C58.5357 33.0131 59.0291 32.888 59.4183 32.6378C59.8213 32.3737 60.0368 31.9637 60.0646 31.4077V30.8657C59.3557 30.8101 58.6955 30.7823 58.084 30.7823C57.389 30.7823 56.9234 30.8865 56.6871 31.095C56.4508 31.3035 56.3327 31.5745 56.3327 31.9081C56.3327 32.6447 56.8678 33.0131 57.938 33.0131Z" fill="#484848"/>
<path d="M113.212 13.5407V14.7916H105.602V14.8333C105.616 15.6812 105.797 16.2858 106.144 16.6471C106.505 17.0085 107.047 17.1892 107.77 17.1892C108.966 17.1892 109.612 16.7236 109.709 15.7923H113.212C113.114 17.2795 112.628 18.3289 111.752 18.9405C110.877 19.552 109.549 19.8578 107.77 19.8578C105.797 19.8578 104.358 19.4547 103.455 18.6486C102.551 17.8286 102.099 16.4109 102.099 14.3955C102.099 12.3246 102.544 10.8791 103.434 10.059C104.337 9.22508 105.776 8.80811 107.749 8.80811C109.584 8.80811 110.953 9.17643 111.857 9.91308C112.76 10.6497 113.212 11.8589 113.212 13.5407ZM105.602 13.5407V13.7075H109.688C109.688 12.9014 109.521 12.3315 109.188 11.9979C108.868 11.6504 108.382 11.4767 107.729 11.4767C107.061 11.4767 106.547 11.6366 106.186 11.9562C105.824 12.262 105.63 12.7902 105.602 13.5407Z" fill="#484848"/>
<path d="M93.4187 16.5637C93.7662 16.9807 94.3221 17.1892 95.0866 17.1892C95.851 17.1892 96.407 16.9807 96.7545 16.5637C97.1158 16.1329 97.2965 15.4101 97.2965 14.3955C97.2965 13.3253 97.1158 12.5747 96.7545 12.1439C96.407 11.6991 95.851 11.4767 95.0866 11.4767C94.3082 11.4767 93.7453 11.6921 93.3979 12.123C93.0643 12.5539 92.8975 13.3114 92.8975 14.3955C92.8975 15.4101 93.0712 16.1329 93.4187 16.5637ZM95.0866 8.80811C97.0741 8.80811 98.5196 9.22508 99.4231 10.059C100.34 10.8791 100.799 12.3246 100.799 14.3955C100.799 16.4109 100.34 17.8286 99.4231 18.6486C98.5196 19.4547 97.0741 19.8578 95.0866 19.8578C93.1129 19.8578 91.6674 19.4547 90.7501 18.6486C89.8467 17.8286 89.395 16.4109 89.395 14.3955C89.395 12.3246 89.8467 10.8791 90.7501 10.059C91.6674 9.22508 93.1129 8.80811 95.0866 8.80811Z" fill="#484848"/>
<path d="M77.9363 19.5458V9.12158H84.2743C85.5808 9.12158 86.5329 9.36481 87.1305 9.85128C87.7282 10.3238 88.027 10.9493 88.027 11.7276C88.027 13.1036 87.1931 13.8681 85.5252 14.021V14.4379C86.4425 14.5074 87.1305 14.7298 87.5892 15.1051C88.0618 15.4665 88.298 16.0224 88.298 16.773C88.298 17.6486 87.9992 18.3297 87.4016 18.8161C86.8178 19.3026 85.9283 19.5458 84.7329 19.5458H77.9363ZM83.482 15.0842H81.4389V17.2525H83.3152C84.3021 17.2525 84.7955 16.8911 84.7955 16.1684C84.7955 15.4456 84.3577 15.0842 83.482 15.0842ZM83.1276 11.3941H81.4389V13.4789H83.5029C83.8782 13.4789 84.1561 13.3816 84.3368 13.187C84.5175 12.9786 84.6079 12.7214 84.6079 12.4156C84.6079 12.0821 84.5036 11.8319 84.2951 11.6651C84.1005 11.4844 83.7114 11.3941 83.1276 11.3941Z" fill="#484848"/>
<path d="M69.0886 16.5637C69.4361 16.9807 69.9921 17.1892 70.7565 17.1892C71.521 17.1892 72.0769 16.9807 72.4244 16.5637C72.7858 16.1329 72.9665 15.4101 72.9665 14.3955C72.9665 13.3253 72.7858 12.5747 72.4244 12.1439C72.0769 11.6991 71.521 11.4767 70.7565 11.4767C69.9782 11.4767 69.4153 11.6921 69.0678 12.123C68.7342 12.5539 68.5674 13.3114 68.5674 14.3955C68.5674 15.4101 68.7412 16.1329 69.0886 16.5637ZM70.7565 8.80811C72.7441 8.80811 74.1896 9.22508 75.093 10.059C76.0103 10.8791 76.469 12.3246 76.469 14.3955C76.469 16.4109 76.0103 17.8286 75.093 18.6486C74.1896 19.4547 72.7441 19.8578 70.7565 19.8578C68.7829 19.8578 67.3374 19.4547 66.42 18.6486C65.5166 17.8286 65.0649 16.4109 65.0649 14.3955C65.0649 12.3246 65.5166 10.8791 66.42 10.059C67.3374 9.22508 68.7829 8.80811 70.7565 8.80811Z" fill="#484848"/>
<path d="M56.4369 9.12158V12.8743H60.1063V9.12158H63.6088V19.5458H60.1063V15.5429H56.4369V19.5458H52.9344V9.12158H56.4369Z" fill="#484848"/>
<path fill-rule="evenodd" clip-rule="evenodd" d="M17.7953 5.47243C14.1816 5.47243 10.7158 6.90798 8.16054 9.46328C5.60525 12.0186 4.1697 15.4843 4.1697 19.098V25.2044C4.1697 28.8181 5.60525 32.2839 8.16054 34.8392C10.7158 37.3945 14.1816 38.83 17.7953 38.83H23.9017C27.5154 38.83 30.9811 37.3945 33.5364 34.8392C36.0917 32.2839 37.5273 28.8181 37.5273 25.2044V19.098C37.5273 15.4843 36.0917 12.0186 33.5364 9.46328C30.9811 6.90798 27.5154 5.47243 23.9017 5.47243H17.7953ZM5.21212 6.51486C1.87486 9.85212 0 14.3784 0 19.098V25.2044C0 29.924 1.87486 34.4503 5.21212 37.7876C8.54939 41.1248 13.0757 42.9997 17.7953 42.9997H23.9017C28.6213 42.9997 33.1476 41.1248 36.4848 37.7876C39.8221 34.4503 41.697 29.924 41.697 25.2044V19.098C41.697 14.3784 39.8221 9.85212 36.4848 6.51486C33.1476 3.17759 28.6213 1.30273 23.9017 1.30273H17.7953C13.0757 1.30273 8.54939 3.17759 5.21212 6.51486Z" fill="#484848"/>
<path d="M41.6969 6.51515C41.6969 10.1134 38.78 13.0303 35.1818 13.0303C31.5836 13.0303 28.6666 10.1134 28.6666 6.51515C28.6666 2.91693 31.5836 0 35.1818 0C38.78 0 41.6969 2.91693 41.6969 6.51515Z" fill="#EA0029"/>
</svg>
