<svg width="32" height="32" viewBox="0 0 32 32" fill="none" xmlns="http://www.w3.org/2000/svg">
<mask id="mask0_240_3385" style="mask-type:luminance" maskUnits="userSpaceOnUse" x="0" y="0" width="32" height="32">
<path d="M32 0H0V32H32V0Z" fill="white"/>
</mask>
<g mask="url(#mask0_240_3385)">
<path d="M0 15.3589C0 8.12113 0 4.50222 2.25111 2.25111C4.50222 0 8.12113 0 15.3589 0H16.6411C23.8789 0 27.4977 0 29.7489 2.25111C32 4.50222 32 8.12113 32 15.3589V16.6411C32 23.8789 32 27.4977 29.7489 29.7489C27.4977 32 23.8789 32 16.6411 32H15.3589C8.12113 32 4.50222 32 2.25111 29.7489C0 27.4977 0 23.8789 0 16.6411V15.3589Z" fill="#FF7700"/>
<path d="M16.0001 15.9145C17.5673 15.9145 18.9778 15.2876 20.0036 14.2618C21.0294 13.236 21.6563 11.8112 21.6563 10.2582C21.6563 8.69098 21.0294 7.28048 20.0036 6.25467C18.9778 5.22885 17.5673 4.60196 16.0001 4.60196C14.4328 4.60196 13.0223 5.22885 11.9965 6.25467C10.9707 7.28048 10.3438 8.69098 10.3438 10.2582C10.3438 11.8255 10.9707 13.236 11.9965 14.2618C13.0223 15.2734 14.4328 15.9145 16.0001 15.9145ZM14.1906 8.43455C14.6608 7.96436 15.3019 7.67942 16.0001 7.67942C16.7124 7.67942 17.3536 7.96436 17.8095 8.43455C18.2796 8.90473 18.5646 9.54586 18.5646 10.244C18.5646 10.9421 18.2796 11.5975 17.8095 12.0534C17.3393 12.5236 16.6982 12.8085 16.0001 12.8085C15.2877 12.8085 14.6465 12.5236 14.1906 12.0534C13.7204 11.5832 13.4355 10.9421 13.4355 10.244C13.4355 9.54586 13.7204 8.90473 14.1906 8.43455Z" fill="white"/>
<path d="M23.6074 18.1941L21.9405 15.9288C21.8407 15.8006 21.6697 15.7863 21.5415 15.886C19.9743 17.2253 18.0509 18.0801 15.985 18.0801C13.9191 18.0801 11.9957 17.2111 10.4284 15.886C10.3145 15.7863 10.1292 15.8006 10.0295 15.9288L8.3768 18.1941C8.2913 18.3081 8.3198 18.4648 8.41955 18.5503C9.8158 19.6901 11.44 20.4453 13.1355 20.8442L9.63055 27.0134C9.54511 27.1843 9.6733 27.3981 9.8728 27.3981H13.3064C13.4062 27.3981 13.5059 27.3411 13.5487 27.2413L15.9992 21.7703L18.4498 27.2413C18.4925 27.3411 18.5923 27.3981 18.692 27.3981H22.1257C22.3251 27.3981 22.4534 27.1843 22.3536 27.0134L18.8487 20.8442C20.5442 20.4453 22.1542 19.6901 23.5504 18.5503C23.6644 18.4648 23.6787 18.3081 23.6074 18.1941Z" fill="white"/>
</g>
</svg>
