<svg width="60" height="71" viewBox="0 0 60 71" fill="none" xmlns="http://www.w3.org/2000/svg">
<path opacity="0.2" d="M0 3C0 1.34315 1.34315 0 3 0H33.7835C34.5637 0 35.3131 0.303905 35.8729 0.847258L51.0894 15.6162C51.6715 16.1812 52 16.9578 52 17.7689V62C52 63.6569 50.6569 65 49 65H3C1.34314 65 0 63.6569 0 62V3Z" fill="url(#paint0_radial_132_1436)"/>
<path d="M59.3057 22.3008C59.7489 22.736 60 23.3237 60 23.9403V68.6786C60 69.9626 58.9438 71 57.6364 71H10.3636C9.05625 71 8 69.9626 8 68.6786V8.32143C8 7.03739 9.05625 6 10.3636 6H41.7335C42.3614 6 42.967 6.24665 43.4102 6.68192L59.3057 22.3008ZM38.6785 36.0219L34.1566 43.4432L29.5903 36.019C29.5114 35.8908 29.4001 35.7847 29.2672 35.7112C29.1343 35.6376 28.9843 35.5989 28.8318 35.5989H25.9924C25.8251 35.599 25.6612 35.6455 25.5197 35.7331C25.4212 35.7941 25.3358 35.8736 25.2686 35.967C25.2013 36.0604 25.1534 36.1659 25.1277 36.2774C25.102 36.389 25.0989 36.5045 25.1186 36.6172C25.1384 36.7299 25.1805 36.8378 25.2427 36.9345L31.3247 46.3958L25.1607 56.0282C25.0719 56.1671 25.0248 56.3278 25.0248 56.4918C25.0248 56.7227 25.1182 56.9441 25.2844 57.1074C25.4507 57.2706 25.6761 57.3623 25.9112 57.3623H28.4565C28.6077 57.3623 28.7564 57.3243 28.8884 57.2519C29.0204 57.1795 29.1313 57.0752 29.2107 56.9488L33.8419 49.5877L38.4436 56.9474C38.523 57.0742 38.6341 57.179 38.7664 57.2516C38.8986 57.3243 39.0477 57.3624 39.1993 57.3623H41.9677C42.1374 57.3623 42.3035 57.3145 42.4463 57.2245C42.5443 57.1628 42.6289 57.0827 42.6954 56.9888C42.7618 56.895 42.8088 56.7892 42.8336 56.6775C42.8585 56.5658 42.8606 56.4504 42.8401 56.3379C42.8195 56.2254 42.7765 56.1179 42.7137 56.0217L36.5217 46.551L42.8223 36.941C42.9142 36.8003 42.9629 36.6366 42.9626 36.4695C42.9626 36.2386 42.8692 36.0172 42.703 35.8539C42.5368 35.6907 42.3113 35.5989 42.0763 35.5989H39.4393C39.2862 35.599 39.1356 35.6381 39.0024 35.7124C38.8692 35.7866 38.7571 35.8928 38.6785 36.0219Z" fill="white"/>
<path d="M42 22V6C42.6403 6 43.2544 6.25435 43.7071 6.70711L59.2929 22.2929C59.7456 22.7456 60 23.3597 60 24H44C42.8954 24 42 23.1046 42 22Z" fill="#C4D5FF"/>
<defs>
<radialGradient id="paint0_radial_132_1436" cx="0" cy="0" r="1" gradientUnits="userSpaceOnUse" gradientTransform="translate(35.5 44.5) rotate(-125.69) scale(43.7093 34.9674)">
<stop stop-color="white" stop-opacity="0"/>
<stop offset="1" stop-color="white"/>
</radialGradient>
</defs>
</svg>
