<svg width="28" height="28" viewBox="0 0 28 28" fill="none" xmlns="http://www.w3.org/2000/svg">
<path d="M23.368 7.89414C23.532 8.0582 23.625 8.27969 23.625 8.51211V25.375C23.625 25.859 23.234 26.25 22.75 26.25H5.25C4.76602 26.25 4.375 25.859 4.375 25.375V2.625C4.375 2.14102 4.76602 1.75 5.25 1.75H16.8629C17.0953 1.75 17.3195 1.84297 17.4836 2.00703L23.368 7.89414ZM21.607 8.91406L16.4609 3.76797V8.91406H21.607ZM15.732 13.0659L14.058 15.8632L12.3676 13.0648C12.3384 13.0165 12.2971 12.9766 12.248 12.9488C12.1988 12.9211 12.1432 12.9065 12.0868 12.9065H11.0357C10.9737 12.9065 10.9131 12.9241 10.8607 12.9571C10.8242 12.9801 10.7926 13.01 10.7677 13.0452C10.7428 13.0804 10.7251 13.1202 10.7155 13.1623C10.706 13.2043 10.7049 13.2478 10.7122 13.2903C10.7195 13.3328 10.7351 13.3735 10.7581 13.4099L13.0096 16.9761L10.7278 20.6068C10.6949 20.6591 10.6774 20.7197 10.6775 20.7815C10.6775 20.8685 10.712 20.952 10.7736 21.0135C10.8351 21.0751 10.9186 21.1096 11.0056 21.1096H11.9479C12.0038 21.1096 12.0588 21.0953 12.1077 21.068C12.1566 21.0407 12.1977 21.0014 12.227 20.9538L13.9415 18.1792L15.645 20.9532C15.6744 21.0011 15.7155 21.0405 15.7645 21.0679C15.8134 21.0953 15.8686 21.1097 15.9247 21.1096H16.9496C17.0124 21.1096 17.0739 21.0916 17.1268 21.0577C17.163 21.0344 17.1944 21.0042 17.219 20.9689C17.2436 20.9335 17.261 20.8936 17.2701 20.8515C17.2793 20.8094 17.2801 20.7659 17.2725 20.7235C17.2649 20.6811 17.249 20.6406 17.2257 20.6043L14.9335 17.0346L17.2659 13.4124C17.3 13.3594 17.318 13.2977 17.3179 13.2346C17.3179 13.1476 17.2833 13.0642 17.2218 13.0026C17.1602 12.9411 17.0768 12.9065 16.9898 12.9065H16.0136C15.9569 12.9066 15.9012 12.9213 15.8519 12.9493C15.8026 12.9773 15.7613 13.0176 15.7322 13.0662L15.732 13.0659Z" fill="#2F2FA1"/>
</svg>
