<svg width="56" height="56" viewBox="0 0 56 56" fill="none" xmlns="http://www.w3.org/2000/svg">
<circle cx="25" cy="25" r="25" fill="url(#paint0_radial_0_1)"/>
<path d="M56 31C56 37.6304 53.3661 43.9893 48.6777 48.6777C43.9893 53.3661 37.6304 56 31 56C24.3696 56 18.0107 53.3661 13.3223 48.6777C8.63392 43.9893 6 37.6304 6 31C6 24.3696 8.63392 18.0107 13.3223 13.3223C18.0107 8.63392 24.3696 6 31 6C37.6304 6 43.9893 8.63392 48.6777 13.3223C53.3661 18.0107 56 24.3696 56 31ZM23.175 24.8531H25.7531C26.1844 24.8531 26.5281 24.5 26.5844 24.0719C26.8656 22.0219 28.2719 20.5281 30.7781 20.5281C32.9219 20.5281 34.8844 21.6 34.8844 24.1781C34.8844 26.1625 33.7156 27.075 31.8687 28.4625C29.7656 29.9906 28.1 31.775 28.2188 34.6719L28.2281 35.35C28.2314 35.555 28.3152 35.7505 28.4613 35.8944C28.6075 36.0382 28.8043 36.1188 29.0094 36.1187H31.5437C31.7509 36.1187 31.9497 36.0364 32.0962 35.8899C32.2427 35.7434 32.325 35.5447 32.325 35.3375V35.0094C32.325 32.7656 33.1781 32.1125 35.4813 30.3656C37.3844 28.9187 39.3688 27.3125 39.3688 23.9406C39.3688 19.2188 35.3813 16.9375 31.0156 16.9375C27.0562 16.9375 22.7188 18.7812 22.4219 24.0812C22.4176 24.1822 22.434 24.2829 22.4701 24.3772C22.5062 24.4716 22.5612 24.5575 22.6317 24.6298C22.7023 24.7021 22.7869 24.7592 22.8803 24.7976C22.9737 24.836 23.074 24.8549 23.175 24.8531ZM30.4406 44.9875C32.3469 44.9875 33.6563 43.7562 33.6563 42.0906C33.6563 40.3656 32.3438 39.1531 30.4406 39.1531C28.6156 39.1531 27.2875 40.3656 27.2875 42.0906C27.2875 43.7562 28.6156 44.9875 30.4438 44.9875H30.4406Z" fill="white"/>
<defs>
<radialGradient id="paint0_radial_0_1" cx="0" cy="0" r="1" gradientUnits="userSpaceOnUse" gradientTransform="translate(-103.5 -113.5) rotate(45.6721) scale(241.14)">
<stop stop-color="white"/>
<stop offset="1" stop-color="white" stop-opacity="0"/>
</radialGradient>
</defs>
</svg>
