<svg width="60" height="60" viewBox="0 0 60 60" fill="none" xmlns="http://www.w3.org/2000/svg">
<path fill-rule="evenodd" clip-rule="evenodd" d="M59.014 54.263L44.9438 40.1883C48.7854 35.1371 50.5654 28.815 49.9238 22.5009C49.2821 16.1869 46.2667 10.3523 41.4876 6.1777C36.7085 2.00307 30.5225 -0.199981 24.1812 0.0142829C17.8399 0.228547 11.8166 2.84412 7.33007 7.33183C3.75249 10.9103 1.36498 15.4662 0.435844 20.3814C0.0664597 22.3353 1.67828 24 3.6668 24C5.5155 24 7.01 22.5471 7.45312 20.7523C7.95629 18.7145 8.81072 16.7683 9.98888 15.0046C11.9882 12.0116 14.8299 9.67889 18.1547 8.30138C21.4794 6.92386 25.1379 6.56343 28.6675 7.26569C32.197 7.96794 35.4391 9.70133 37.9838 12.2466C40.5284 14.7919 42.2613 18.0349 42.9634 21.5653C43.6655 25.0958 43.3052 28.7552 41.928 32.0808C40.5508 35.4064 38.2187 38.2489 35.2265 40.2487C33.1658 41.6259 30.8001 42.5667 28.3514 43.019C26.5211 43.3571 25.0001 44.837 25.0001 46.6983C25.0001 48.5582 26.5135 50.0898 28.3569 49.8422C32.6214 49.2693 36.7009 47.6011 40.178 44.9553L54.2482 59.03C54.8856 59.6519 55.7407 60 56.6311 60C57.5215 60 58.3766 59.6519 59.014 59.03C59.6454 58.3976 60.0001 57.5403 60.0001 56.6465C60.0001 55.7527 59.6454 54.8954 59.014 54.263ZM17.2137 33.0711C16.4327 32.29 15.1664 32.29 14.3853 33.0711L9.14269 38.3137L3.90008 33.0711C3.11901 32.29 1.85265 32.29 1.07165 33.0711C0.290581 33.8521 0.290581 35.1184 1.07165 35.8995L6.31426 41.1421L1.07165 46.3848C0.290581 47.1658 0.290581 48.4322 1.07165 49.2132C1.85265 49.9942 3.11901 49.9942 3.90008 49.2132L9.14269 43.9706L14.3853 49.2132C15.1664 49.9942 16.4327 49.9942 17.2137 49.2132C17.9948 48.4322 17.9948 47.1658 17.2137 46.3848L11.9711 41.1421L17.2137 35.8995C17.9948 35.1184 17.9948 33.8521 17.2137 33.0711Z" fill="#CFD9E5"/>
</svg>
