<svg width="20" height="24" viewBox="0 0 20 24" fill="none" xmlns="http://www.w3.org/2000/svg">
<path d="M18.993 6.01875C19.157 6.17946 19.25 6.39643 19.25 6.62411V23.1429C19.25 23.617 18.859 24 18.375 24H0.875C0.391016 24 0 23.617 0 23.1429V0.857143C0 0.383036 0.391016 0 0.875 0H12.4879C12.7203 0 12.9445 0.0910715 13.1086 0.251786L18.993 6.01875ZM17.232 7.01786L12.0859 1.97679V7.01786H17.232Z" fill="#2F2FA1"/>
<path fill-rule="evenodd" clip-rule="evenodd" d="M4.45699 20.6141C4.14499 20.5024 3.93499 20.2629 3.79999 19.9984C3.50749 19.4268 3.60499 18.8567 3.91999 18.3777C4.21699 17.9266 4.71049 17.5446 5.26549 17.2213C5.97031 16.8295 6.71546 16.5118 7.48849 16.2735C8.08878 15.2164 8.62082 14.1235 9.08149 13.0012C8.79349 12.3444 8.56849 11.6949 8.43649 11.0984C8.30749 10.5106 8.25799 9.92872 8.36749 9.42913C8.47999 8.91044 8.77849 8.44023 9.34399 8.21983C9.63049 8.10668 9.94249 8.0435 10.2455 8.10668C10.3979 8.13847 10.5412 8.20309 10.6649 8.29585C10.7887 8.38862 10.8898 8.5072 10.961 8.64301C11.0845 8.88909 11.1496 9.15933 11.1515 9.43354C11.162 9.70979 11.1335 10.0154 11.0795 10.3357C10.955 11.0851 10.6745 12.002 10.2995 12.9718C10.7133 13.8388 11.2053 14.6679 11.7695 15.4492C12.4376 15.3975 13.1097 15.4222 13.772 15.5227C14.318 15.6182 14.873 15.8092 15.212 16.2059C15.3968 16.4193 15.5025 16.6875 15.512 16.9671C15.5225 17.2507 15.44 17.5284 15.305 17.7944C15.179 18.0427 15.0065 18.2572 14.774 18.4056C14.5472 18.5505 14.2794 18.6215 14.009 18.6084C13.5125 18.5878 13.028 18.3189 12.608 17.9957C12.158 17.6474 11.693 17.1625 11.243 16.5997C10.2286 16.7125 9.22629 16.9121 8.24749 17.1963C7.74049 18.053 7.21549 18.8259 6.71599 19.4151C6.27949 19.9294 5.80399 20.379 5.32699 20.57C5.07499 20.6729 4.76749 20.7243 4.45699 20.6141ZM6.52553 17.8208C6.27653 17.9325 6.04703 18.05 5.83703 18.1705C5.34503 18.4556 5.02553 18.7333 4.86653 18.9757C4.72553 19.1873 4.72254 19.3431 4.80654 19.5047C4.81751 19.5274 4.83056 19.549 4.84554 19.5694C4.86343 19.5647 4.88097 19.5588 4.89803 19.5517C5.10353 19.4695 5.43054 19.2064 5.85054 18.7113C6.08993 18.4252 6.31519 18.128 6.52553 17.8208ZM8.98554 15.865C9.16403 15.8239 9.34103 15.7872 9.51954 15.7504C9.84653 15.6858 10.175 15.6299 10.5005 15.5829C10.2279 15.1732 9.97264 14.7526 9.73553 14.3222C9.50002 14.8431 9.24993 15.3576 8.98554 15.865ZM12.6545 16.5277C12.8559 16.7447 13.074 16.9461 13.307 17.1302C13.667 17.4094 13.919 17.5019 14.054 17.5064C14.0901 17.5107 14.1266 17.5029 14.1575 17.4843C14.2197 17.4364 14.2683 17.3737 14.2985 17.3021C14.3524 17.2127 14.3833 17.1119 14.3885 17.0082C14.388 16.9732 14.3741 16.9396 14.3495 16.9142C14.2715 16.8231 14.048 16.6908 13.5725 16.6071C13.3055 16.5601 12.9965 16.5351 12.6545 16.5277ZM9.66953 11.3746C9.80753 10.9264 9.90953 10.515 9.96953 10.1565V10.1579C10.016 9.8817 10.034 9.65395 10.0265 9.47468C10.0205 9.31893 9.99804 9.22782 9.97854 9.18374C9.9035 9.19284 9.83022 9.21264 9.76103 9.24252C9.63203 9.29395 9.52403 9.39827 9.46703 9.65836C9.40553 9.94048 9.42203 10.3475 9.53603 10.8662C9.57416 11.0372 9.61869 11.2068 9.66953 11.3746Z" fill="white"/>
</svg>
