<svg width="60" height="71" viewBox="0 0 60 71" fill="none" xmlns="http://www.w3.org/2000/svg">
<path opacity="0.2" d="M0 3C0 1.34315 1.34315 0 3 0H33.7835C34.5637 0 35.3131 0.303905 35.8729 0.847258L51.0894 15.6162C51.6715 16.1812 52 16.9578 52 17.7689V62C52 63.6569 50.6569 65 49 65H3C1.34314 65 0 63.6569 0 62V3Z" fill="url(#paint0_radial_0_1)"/>
<path d="M59.3057 22.3008C59.7489 22.7361 60 23.3237 60 23.9403V68.6786C60 69.9626 58.9438 71 57.6364 71H10.3636C9.05625 71 8 69.9626 8 68.6786V8.32143C8 7.03739 9.05625 6 10.3636 6H41.7335C42.3614 6 42.967 6.24665 43.4102 6.68192L59.3057 22.3008Z" fill="white"/>
<path d="M42 22V6C42.6403 6 43.2544 6.25435 43.7071 6.70711L59.2929 22.2929C59.7456 22.7456 60 23.3597 60 24H44C42.8954 24 42 23.1046 42 22Z" fill="#C4D5FF"/>
<path fill-rule="evenodd" clip-rule="evenodd" d="M20.0397 61.8296C19.1969 61.5271 18.6296 60.8785 18.2649 60.1621C17.4748 58.6141 17.7382 57.07 18.5891 55.7726C19.3914 54.5509 20.7245 53.5162 22.2237 52.6407C24.1276 51.5795 26.1405 50.7192 28.2287 50.0739C29.8502 47.2109 31.2874 44.2509 32.5318 41.2113C31.7539 39.4324 31.1461 37.6735 30.7895 36.0577C30.441 34.4659 30.3073 32.89 30.6031 31.5369C30.907 30.1321 31.7133 28.8587 33.2409 28.2617C34.0149 27.9553 34.8577 27.7842 35.6762 27.9553C36.0879 28.0414 36.4749 28.2164 36.8092 28.4676C37.1435 28.7189 37.4167 29.04 37.6089 29.4078C37.9426 30.0743 38.1185 30.8062 38.1235 31.5489C38.1519 32.297 38.0749 33.1248 37.929 33.9923C37.5927 36.0219 36.835 38.5052 35.822 41.1317C36.9399 43.4797 38.2688 45.7252 39.7929 47.8413C41.5978 47.7014 43.4131 47.7681 45.2023 48.0403C46.6772 48.299 48.1764 48.8163 49.0922 49.8908C49.5913 50.4685 49.8769 51.195 49.9025 51.9522C49.9309 52.7203 49.7081 53.4724 49.3434 54.1927C49.003 54.8653 48.537 55.4463 47.909 55.8482C47.2964 56.2407 46.5731 56.433 45.8425 56.3974C44.5013 56.3417 43.1925 55.6135 42.058 54.7379C40.8424 53.7948 39.5863 52.4815 38.3707 50.9573C35.6306 51.2628 32.923 51.8034 30.279 52.573C28.9094 54.8931 27.4912 56.9864 26.1419 58.5822C24.9628 59.9751 23.6783 61.1928 22.3898 61.7102C21.7091 61.9888 20.8784 62.128 20.0397 61.8296ZM25.6274 54.2643C24.9548 54.5668 24.3348 54.8852 23.7676 55.2115C22.4385 55.9835 21.5755 56.7357 21.146 57.3923C20.7651 57.9654 20.757 58.3872 20.9839 58.825C21.0135 58.8863 21.0488 58.945 21.0892 59.0001C21.1376 58.9874 21.185 58.9714 21.2311 58.9523C21.7862 58.7295 22.6695 58.0171 23.804 56.676C24.4507 55.9012 25.0592 55.0964 25.6274 54.2643ZM32.2726 48.9675C32.7548 48.8561 33.2329 48.7566 33.7151 48.6571C34.5984 48.482 35.4858 48.3308 36.3651 48.2034C35.6285 47.0938 34.9391 45.9547 34.2986 44.7889C33.6624 46.1998 32.9868 47.5932 32.2726 48.9675ZM42.1837 50.7623C42.7276 51.3499 43.3169 51.8954 43.9463 52.3939C44.9187 53.1501 45.5995 53.4008 45.9641 53.4127C46.0615 53.4245 46.1601 53.4034 46.2437 53.353C46.4117 53.2234 46.5429 53.0534 46.6246 52.8596C46.7701 52.6175 46.8535 52.3444 46.8677 52.0636C46.8664 51.9688 46.8288 51.8778 46.7624 51.8089C46.5517 51.5622 45.9479 51.204 44.6635 50.9772C43.9422 50.8499 43.1075 50.7822 42.1837 50.7623ZM34.1203 36.8059C34.4931 35.5921 34.7686 34.4778 34.9307 33.5068V33.5108C35.0563 32.7626 35.1049 32.1458 35.0847 31.6603C35.0685 31.2384 35.0077 30.9917 34.955 30.8723C34.7523 30.897 34.5544 30.9506 34.3675 31.0315C34.019 31.1708 33.7273 31.4533 33.5733 32.1577C33.4072 32.9218 33.4517 34.0242 33.7597 35.4289C33.8627 35.8921 33.983 36.3514 34.1203 36.8059Z" fill="#2F2FA1"/>
<defs>
<radialGradient id="paint0_radial_0_1" cx="0" cy="0" r="1" gradientUnits="userSpaceOnUse" gradientTransform="translate(35.5 44.5) rotate(-125.69) scale(43.7093 34.9674)">
<stop stop-color="white" stop-opacity="0"/>
<stop offset="1" stop-color="white"/>
</radialGradient>
</defs>
</svg>
