<svg width="58" height="58" viewBox="0 0 58 58" fill="none" xmlns="http://www.w3.org/2000/svg">
<path d="M53.1666 12.5185L25.5924 40.1168L15.3458 29.8702L18.7533 26.4627L25.5924 33.3018L49.7591 9.13516L53.1666 12.5185ZM28.9999 48.3335C18.3424 48.3335 9.66659 39.6577 9.66659 29.0002C9.66659 18.3427 18.3424 9.66683 28.9999 9.66683C32.7941 9.66683 36.3466 10.7785 39.3433 12.6877L42.8474 9.1835C38.785 6.35168 33.952 4.83346 28.9999 4.8335C15.6599 4.8335 4.83325 15.6602 4.83325 29.0002C4.83325 42.3402 15.6599 53.1668 28.9999 53.1668C33.1808 53.1668 37.1199 52.1035 40.5516 50.2185L36.9266 46.5935C34.5099 47.7052 31.8274 48.3335 28.9999 48.3335ZM45.9166 36.2502H38.6666V41.0835H45.9166V48.3335H50.7499V41.0835H57.9999V36.2502H50.7499V29.0002H45.9166V36.2502Z" fill="#2F2FA1"/>
</svg>
