<svg width="32" height="32" viewBox="0 0 32 32" fill="none" xmlns="http://www.w3.org/2000/svg">
<circle cx="16" cy="16" r="16" fill="#0071F2"/>
<path fill-rule="evenodd" clip-rule="evenodd" d="M24.5763 11.7639C24.7098 11.3331 24.5763 11.0199 23.9856 11.0199H22.0218C21.5264 11.0199 21.2976 11.2941 21.1641 11.5874C21.1641 11.5874 20.1539 14.093 18.7431 15.7174C18.2856 16.1872 18.076 16.3438 17.8281 16.3438C17.6946 16.3438 17.5229 16.1872 17.5229 15.7567V11.7436C17.5229 11.2349 17.3706 11 16.951 11H13.8625C13.5573 11 13.3668 11.2349 13.3668 11.4698C13.3668 11.9591 14.0721 12.0767 14.1483 13.4467V16.4236C14.1483 17.0695 14.0358 17.1875 13.786 17.1875C13.1189 17.1875 11.4985 14.6625 10.5265 11.7853C10.3375 11.2154 10.1455 11 9.64975 11H7.66713C7.09525 11 7 11.2739 7 11.5676C7 12.0962 7.66713 14.758 10.1073 18.281C11.7276 20.6873 14.0343 21.9805 16.1121 21.9805C17.3706 21.9805 17.5229 21.6868 17.5229 21.1975V19.3772C17.5229 18.7901 17.6373 18.6924 18.0378 18.6924C18.3235 18.6924 18.8384 18.8486 20.0013 20.0036C21.3355 21.3736 21.5643 22 22.3079 22H24.2714C24.8433 22 25.1103 21.7063 24.9576 21.1387C24.7863 20.5711 24.1379 19.7492 23.299 18.7707C22.8415 18.223 22.1553 17.616 21.9456 17.3223C21.6599 16.9308 21.736 16.7742 21.9456 16.4221C21.9265 16.4221 24.3288 12.938 24.5763 11.7624" fill="white"/>
</svg>
