<svg width="38" height="38" viewBox="0 0 38 38" fill="none" xmlns="http://www.w3.org/2000/svg">
<path d="M32.3024 5.52431C30.5602 3.76604 28.4856 2.37207 26.1993 1.42364C23.9131 0.475213 21.4609 -0.00871618 18.9858 5.61248e-05C8.61412 5.61248e-05 0.1615 8.4503 0.152 18.8243C0.152 22.1469 1.02125 25.3793 2.66238 28.2412L0 38.0001L9.9845 35.3828C12.7466 36.886 15.8411 37.6739 18.9858 37.6747H18.9953C29.3693 37.6747 37.8195 29.2244 37.829 18.8409C37.8314 16.3663 37.3441 13.9156 36.3951 11.6301C35.4462 9.34466 34.0544 7.26953 32.3 5.52431H32.3024ZM18.9858 34.4874C16.1809 34.4884 13.4275 33.7336 11.0153 32.3024L10.4452 31.9604L4.522 33.5137L6.10375 27.7353L5.73325 27.1392C4.16529 24.6462 3.33604 21.7599 3.34162 18.8148C3.34162 10.2031 10.3645 3.17781 18.9953 3.17781C21.0514 3.17412 23.0879 3.57746 24.9874 4.36457C26.8869 5.15169 28.6119 6.30701 30.0627 7.76393C31.5187 9.21517 32.6729 10.9403 33.4588 12.8399C34.2447 14.7394 34.6468 16.7757 34.6418 18.8314C34.6323 27.4741 27.6094 34.4874 18.9858 34.4874ZM27.5714 22.7692C27.1035 22.5341 24.7926 21.3964 24.358 21.2349C23.9257 21.0806 23.6099 20.9998 23.3011 21.4701C22.9853 21.9379 22.0828 23.0043 21.812 23.3107C21.5413 23.6266 21.261 23.6622 20.7907 23.4294C20.3229 23.1919 18.8053 22.6979 17.0098 21.0901C15.6085 19.8432 14.6704 18.2994 14.3901 17.8316C14.1194 17.3613 14.364 17.1096 14.5991 16.8744C14.8057 16.6654 15.067 16.3234 15.3021 16.0527C15.5396 15.7819 15.618 15.5824 15.7724 15.2689C15.9267 14.9507 15.8531 14.6799 15.7367 14.4448C15.618 14.2097 14.6799 11.8893 14.2832 10.9536C13.9032 10.0297 13.5161 10.1579 13.2264 10.1461C12.9556 10.1294 12.6398 10.1294 12.3239 10.1294C12.0853 10.1354 11.8506 10.1905 11.6344 10.2915C11.4182 10.3924 11.2252 10.537 11.0675 10.7161C10.6353 11.1863 9.42638 12.3239 9.42638 14.6443C9.42638 16.9647 11.1126 19.1948 11.3501 19.5107C11.5829 19.8266 14.6609 24.5742 19.3847 26.6167C20.501 27.1036 21.3798 27.3909 22.0661 27.6094C23.1943 27.9704 24.2131 27.9158 25.0254 27.7994C25.9279 27.6617 27.8065 26.6594 28.2031 25.5598C28.5926 24.4578 28.5926 23.5173 28.4739 23.3202C28.3575 23.1207 28.0416 23.0043 27.5714 22.7692Z" fill="#A3C2FF"/>
</svg>
