<svg width="20" height="24" viewBox="0 0 20 24" fill="none" xmlns="http://www.w3.org/2000/svg">
<path d="M18.993 6.01875C19.157 6.17946 19.25 6.39643 19.25 6.62411V23.1429C19.25 23.617 18.859 24 18.375 24H0.875C0.391016 24 0 23.617 0 23.1429V0.857143C0 0.383036 0.391016 0 0.875 0H12.4879C12.7203 0 12.9445 0.0910715 13.1086 0.251786L18.993 6.01875ZM17.232 7.01786L12.0859 1.97679V7.01786H17.232Z" fill="#2F2FA1"/>
<path fill-rule="evenodd" clip-rule="evenodd" d="M4.45699 20.6145C4.14499 20.5028 3.93499 20.2633 3.79999 19.9988C3.50749 19.4272 3.60499 18.8571 3.91999 18.3781C4.21699 17.927 4.71049 17.545 5.26549 17.2217C5.97031 16.8299 6.71546 16.5122 7.48849 16.2739C8.08878 15.2168 8.62082 14.1239 9.08149 13.0016C8.79349 12.3448 8.56849 11.6953 8.43649 11.0988C8.30749 10.511 8.25799 9.92912 8.36749 9.42953C8.47999 8.91083 8.77849 8.44063 9.34399 8.22022C9.63049 8.10708 9.94249 8.0439 10.2455 8.10708C10.3979 8.13886 10.5412 8.20348 10.6649 8.29625C10.7887 8.38902 10.8898 8.5076 10.961 8.64341C11.0845 8.88948 11.1496 9.15973 11.1515 9.43394C11.162 9.71018 11.1335 10.0158 11.0795 10.3361C10.955 11.0855 10.6745 12.0024 10.2995 12.9722C10.7133 13.8392 11.2053 14.6683 11.7695 15.4496C12.4376 15.3979 13.1097 15.4226 13.772 15.5231C14.318 15.6186 14.873 15.8096 15.212 16.2063C15.3968 16.4197 15.5025 16.6879 15.512 16.9675C15.5225 17.2511 15.44 17.5288 15.305 17.7948C15.179 18.0431 15.0065 18.2576 14.774 18.406C14.5472 18.5509 14.2794 18.6219 14.009 18.6088C13.5125 18.5882 13.028 18.3193 12.608 17.9961C12.158 17.6478 11.693 17.1629 11.243 16.6001C10.2286 16.7129 9.22629 16.9125 8.24749 17.1967C7.74049 18.0534 7.21549 18.8263 6.71599 19.4155C6.27949 19.9298 5.80399 20.3794 5.32699 20.5704C5.07499 20.6733 4.76749 20.7247 4.45699 20.6145ZM6.52553 17.8212C6.27653 17.9329 6.04703 18.0504 5.83703 18.1709C5.34503 18.456 5.02553 18.7337 4.86653 18.9761C4.72553 19.1877 4.72254 19.3435 4.80654 19.5051C4.81751 19.5278 4.83056 19.5494 4.84554 19.5698C4.86343 19.5651 4.88097 19.5592 4.89803 19.5521C5.10353 19.4699 5.43054 19.2068 5.85054 18.7116C6.08993 18.4256 6.31519 18.1284 6.52553 17.8212ZM8.98554 15.8654C9.16403 15.8243 9.34103 15.7876 9.51954 15.7508C9.84653 15.6862 10.175 15.6303 10.5005 15.5833C10.2279 15.1736 9.97264 14.753 9.73553 14.3226C9.50002 14.8435 9.24993 15.358 8.98554 15.8654ZM12.6545 16.5281C12.8559 16.7451 13.074 16.9465 13.307 17.1306C13.667 17.4098 13.919 17.5023 14.054 17.5068C14.0901 17.5111 14.1266 17.5033 14.1575 17.4847C14.2197 17.4368 14.2683 17.3741 14.2985 17.3025C14.3524 17.2131 14.3833 17.1123 14.3885 17.0086C14.388 16.9736 14.3741 16.94 14.3495 16.9146C14.2715 16.8235 14.048 16.6912 13.5725 16.6075C13.3055 16.5605 12.9965 16.5355 12.6545 16.5281ZM9.66953 11.375C9.80753 10.9268 9.90953 10.5154 9.96953 10.1569V10.1583C10.016 9.8821 10.034 9.65434 10.0265 9.47508C10.0205 9.31932 9.99804 9.22822 9.97854 9.18414C9.9035 9.19324 9.83022 9.21304 9.76103 9.24292C9.63203 9.29434 9.52403 9.39867 9.46703 9.65875C9.40553 9.94087 9.42203 10.3479 9.53603 10.8666C9.57416 11.0376 9.61869 11.2072 9.66953 11.375Z" fill="white"/>
</svg>
