<svg width="24" height="24" viewBox="0 0 24 24" fill="none" xmlns="http://www.w3.org/2000/svg">
<rect width="24" height="24" fill="white"/>
<path d="M12 11C13.151 11 14 10.152 14 9C14 7.848 13.151 7 12 7C10.85 7 10 7.848 10 9C10 10.152 10.85 11 12 11ZM12 12C9.791 12 8 13.612 8 15.6V15.986H16V15.6C16 13.612 14.209 12 12 12Z" fill="#95A6C6"/>
<path d="M20 2H4C2.897 2 2 2.897 2 4V18C2 19.103 2.897 20 4 20H9L12 23L15 20H20C21.103 20 22 19.103 22 18V4C22 2.897 21.103 2 20 2ZM14 18L12 20L10 18H4V4H20L20.002 18H14Z" fill="#95A6C6"/>
</svg>
