<svg width="88" height="106" viewBox="0 0 88 106" fill="none" xmlns="http://www.w3.org/2000/svg">
<path d="M67 23C67 35.7025 56.7025 46 44 46C31.2975 46 21 35.7025 21 23C21 10.2975 31.2975 0 44 0C56.7025 0 67 10.2975 67 23Z" fill="#2F2FA1"/>
<path d="M42 45L44 50L46 45H42Z" fill="#2F2FA1"/>
<g filter="url(#filter0_d_0_1)">
<rect x="40" y="53" width="8" height="8" rx="4" fill="white"/>
</g>
<circle cx="44" cy="57" r="2" fill="#2F2FA1"/>
<path d="M33.7333 20.6775H43.0667V18.7886H33.7333V20.6775Z" fill="white"/>
<path d="M39.3333 22.5659H33.7333V24.4548H39.3333V22.5659Z" fill="white"/>
<path d="M33.7333 28.233H43.0667V26.3441H33.7333V28.233Z" fill="white"/>
<path fill-rule="evenodd" clip-rule="evenodd" d="M58 15V32H30V15H58ZM56.1333 30.1111V16.8889H31.8667V30.1111H56.1333Z" fill="white"/>
<path d="M52.4 18.7886V28.233H54.2667V18.7886H52.4Z" fill="white"/>
<path d="M48.6667 28.2327H50.5333V22.5556H48.6667V28.2327Z" fill="white"/>
<path d="M44.9333 28.2225H46.8V18.7886H44.9333V28.2225Z" fill="white"/>
<defs>
<filter id="filter0_d_0_1" x="0" y="18" width="88" height="88" filterUnits="userSpaceOnUse" color-interpolation-filters="sRGB">
<feFlood flood-opacity="0" result="BackgroundImageFix"/>
<feColorMatrix in="SourceAlpha" type="matrix" values="0 0 0 0 0 0 0 0 0 0 0 0 0 0 0 0 0 0 127 0" result="hardAlpha"/>
<feOffset dy="5"/>
<feGaussianBlur stdDeviation="20"/>
<feComposite in2="hardAlpha" operator="out"/>
<feColorMatrix type="matrix" values="0 0 0 0 0.587972 0 0 0 0 0.631268 0 0 0 0 0.742602 0 0 0 0.2 0"/>
<feBlend mode="normal" in2="BackgroundImageFix" result="effect1_dropShadow_0_1"/>
<feBlend mode="normal" in="SourceGraphic" in2="effect1_dropShadow_0_1" result="shape"/>
</filter>
</defs>
</svg>
