<svg width="24" height="24" viewBox="0 0 24 24" fill="none" xmlns="http://www.w3.org/2000/svg">
<path d="M20 15.5C18.75 15.5 17.55 15.3 16.43 14.93C16.2542 14.874 16.0664 14.8667 15.8868 14.909C15.7072 14.9513 15.5424 15.0415 15.41 15.17L13.21 17.37C10.3739 15.9272 8.06711 13.6239 6.62 10.79L8.82 8.58C9.1 8.31 9.18 7.92 9.07 7.57C8.69065 6.41806 8.49821 5.2128 8.5 4C8.5 3.45 8.05 3 7.5 3H4C3.45 3 3 3.45 3 4C3 13.39 10.61 21 20 21C20.55 21 21 20.55 21 20V16.5C21 15.95 20.55 15.5 20 15.5Z" fill="#121419"/>
<path d="M12 3V13L15 10H21V3H12Z" fill="#80899B"/>
</svg>
