<svg width="60" height="64" viewBox="0 0 60 64" fill="none" xmlns="http://www.w3.org/2000/svg">
<path d="M17.9994 52C14.6995 52 12.0296 54.7 12.0296 58C12.0296 61.3 14.6995 64 17.9994 64C21.2993 64 23.9992 61.3 23.9992 58C23.9992 54.7 21.2993 52 17.9994 52ZM0 4V10H5.99979L16.7994 32.77L12.7496 40.12C12.2696 40.96 11.9996 41.95 11.9996 43C11.9996 46.3 14.6995 49 17.9994 49H53.9981V43H19.2593C18.8394 43 18.5094 42.67 18.5094 42.25L18.5994 41.89L21.2993 37H43.6485C45.8984 37 47.8784 35.77 48.8983 33.91L59.638 14.44C59.8855 13.9822 60.01 13.4679 59.9994 12.9476C59.9888 12.4272 59.8433 11.9185 59.5774 11.4712C59.3114 11.0238 58.9339 10.6531 58.4818 10.3952C58.0297 10.1374 57.5185 10.0012 56.998 10H12.6296L9.80966 4H0ZM47.9984 52C44.6985 52 42.0286 54.7 42.0286 58C42.0286 61.3 44.6985 64 47.9984 64C51.2982 64 53.9981 61.3 53.9981 58C53.9981 54.7 51.2982 52 47.9984 52Z" fill="#CFD9E5"/>
<mask id="path-2-outside-1_303_11808" maskUnits="userSpaceOnUse" x="21.4844" y="0.485352" width="24" height="24" fill="black">
<rect fill="white" x="21.4844" y="0.485352" width="24" height="24"/>
<path d="M38.3839 4.07114C39.1649 3.29009 40.4313 3.29009 41.2123 4.07114C41.9933 4.85219 41.9933 6.11852 41.2123 6.89956L27.8986 20.2133C27.1175 20.9943 25.8512 20.9943 25.0702 20.2133C24.2891 19.4322 24.2891 18.1659 25.0702 17.3848L38.3839 4.07114Z"/>
<path d="M25.0702 6.89957C24.2891 6.11852 24.2891 4.85219 25.0702 4.07114C25.8512 3.29009 27.1175 3.29009 27.8986 4.07114L41.2123 17.3848C41.9934 18.1659 41.9934 19.4322 41.2123 20.2133C40.4313 20.9943 39.1649 20.9943 38.3839 20.2133L25.0702 6.89957Z"/>
</mask>
<path d="M38.3839 4.07114C39.1649 3.29009 40.4313 3.29009 41.2123 4.07114C41.9933 4.85219 41.9933 6.11852 41.2123 6.89956L27.8986 20.2133C27.1175 20.9943 25.8512 20.9943 25.0702 20.2133C24.2891 19.4322 24.2891 18.1659 25.0702 17.3848L38.3839 4.07114Z" fill="#CFD9E5"/>
<path d="M25.0702 6.89957C24.2891 6.11852 24.2891 4.85219 25.0702 4.07114C25.8512 3.29009 27.1175 3.29009 27.8986 4.07114L41.2123 17.3848C41.9934 18.1659 41.9934 19.4322 41.2123 20.2133C40.4313 20.9943 39.1649 20.9943 38.3839 20.2133L25.0702 6.89957Z" fill="#CFD9E5"/>
<path d="M38.3839 20.2133L40.5052 18.092L38.3839 20.2133ZM41.2123 17.3848L39.091 19.5062L41.2123 17.3848ZM27.8986 4.07114L30.0199 1.94982L27.8986 4.07114ZM25.0702 6.89957L22.9488 9.02089L25.0702 6.89957ZM27.8986 20.2133L30.0199 22.3346L27.8986 20.2133ZM41.2123 6.89956L39.091 4.77824L41.2123 6.89956ZM39.091 4.77824L25.7773 18.092L30.0199 22.3346L43.3336 9.02089L39.091 4.77824ZM27.1915 19.5062L40.5052 6.19246L36.2626 1.94982L22.9488 15.2635L27.1915 19.5062ZM25.7773 6.19246L39.091 19.5062L43.3336 15.2635L30.0199 1.94982L25.7773 6.19246ZM40.5052 18.092L27.1915 4.77824L22.9488 9.02089L36.2626 22.3346L40.5052 18.092ZM39.091 18.092C39.4815 17.7014 40.1147 17.7014 40.5052 18.092L36.2626 22.3346C38.2152 24.2872 41.381 24.2872 43.3336 22.3346L39.091 18.092ZM39.091 19.5062C38.7005 19.1156 38.7005 18.4825 39.091 18.092L43.3336 22.3346C45.2862 20.382 45.2862 17.2161 43.3336 15.2635L39.091 19.5062ZM27.1915 6.19246C26.801 6.58298 26.1678 6.58298 25.7773 6.19246L30.0199 1.94982C28.0673 -0.00280404 24.9015 -0.00280356 22.9488 1.94982L27.1915 6.19246ZM22.9488 1.94982C20.9962 3.90244 20.9962 7.06826 22.9488 9.02089L27.1915 4.77824C27.582 5.16877 27.582 5.80193 27.1915 6.19246L22.9488 1.94982ZM27.1915 18.092C27.582 18.4825 27.582 19.1156 27.1915 19.5062L22.9488 15.2635C20.9962 17.2161 20.9962 20.382 22.9488 22.3346L27.1915 18.092ZM25.7773 18.092C26.1678 17.7014 26.801 17.7014 27.1915 18.092L22.9488 22.3346C24.9015 24.2872 28.0673 24.2872 30.0199 22.3346L25.7773 18.092ZM39.091 6.19246C38.7005 5.80193 38.7005 5.16877 39.091 4.77824L43.3336 9.02089C45.2862 7.06826 45.2862 3.90244 43.3336 1.94982L39.091 6.19246ZM43.3336 1.94982C41.381 -0.00280404 38.2152 -0.00280309 36.2626 1.94982L40.5052 6.19246C40.1147 6.58298 39.4815 6.58298 39.091 6.19246L43.3336 1.94982Z" fill="white" mask="url(#path-2-outside-1_303_11808)"/>
</svg>
