<svg width="18" height="18" viewBox="0 0 18 18" fill="none" xmlns="http://www.w3.org/2000/svg">
<path d="M17.7042 16.2789L13.4831 12.0565C14.6356 10.5411 15.1696 8.6445 14.9771 6.75028C14.7846 4.85607 13.88 3.1057 12.4462 1.85331C11.0125 0.600918 9.15672 -0.0599946 7.25432 0.00428491C5.35192 0.0685644 3.54495 0.853237 2.19898 2.19955C0.853017 3.54587 0.0685467 5.3533 0.00428381 7.25619C-0.0599791 9.15908 0.600763 11.0154 1.85283 12.4495C3.1049 13.8836 4.85482 14.7884 6.74854 14.981C8.64227 15.1735 10.5384 14.6394 12.0534 13.4866L16.2744 17.709C16.4656 17.8956 16.7222 18 16.9893 18C17.2564 18 17.513 17.8956 17.7042 17.709C17.8936 17.5193 18 17.2621 18 16.994C18 16.7258 17.8936 16.4686 17.7042 16.2789ZM2.07669 7.53479C2.07669 6.45491 2.39683 5.39927 2.99662 4.50138C3.59642 3.60349 4.44894 2.90367 5.44636 2.49041C6.44379 2.07716 7.54133 1.96903 8.6002 2.17971C9.65906 2.39038 10.6317 2.9104 11.3951 3.67399C12.1585 4.43759 12.6784 5.41046 12.889 6.4696C13.0996 7.52874 12.9915 8.62656 12.5784 9.62424C12.1652 10.6219 11.4656 11.4747 10.5679 12.0746C9.67025 12.6746 8.61488 12.9948 7.53528 12.9948C6.08809 12.9931 4.70067 12.4173 3.67736 11.3937C2.65405 10.3701 2.0784 8.98235 2.07669 7.53479Z" fill="#808DA5"/>
</svg>
