<svg width="26" height="24" viewBox="0 0 26 24" fill="none" xmlns="http://www.w3.org/2000/svg">
<rect width="24" height="24" fill="white"/>
<path d="M22 15.5C20.75 15.5 19.55 15.3 18.43 14.93C18.2542 14.874 18.0664 14.8667 17.8868 14.909C17.7072 14.9513 17.5424 15.0415 17.41 15.17L15.21 17.37C12.3739 15.9272 10.0671 13.6239 8.62 10.79L10.82 8.58C11.1 8.31 11.18 7.92 11.07 7.57C10.6907 6.41806 10.4982 5.2128 10.5 4C10.5 3.45 10.05 3 9.5 3H6C5.45 3 5 3.45 5 4C5 13.39 12.61 21 22 21C22.55 21 23 20.55 23 20V16.5C23 15.95 22.55 15.5 22 15.5Z" fill="#95A6C6"/>
<path d="M14 3V13L17 10H23V3H14Z" fill="#CAD4E7"/>
</svg>
